<?xml version='1.0' encoding='UTF-8'?>
<!DOCTYPE svg PUBLIC "-//W3C//DTD SVG 1.1//EN" "http://www.w3.org/Graphics/SVG/1.1/DTD/svg11.dtd">
<!-- Generated by graphviz version 2.38.0 (20140413.2041)
 -->
<!-- Title: %3 Pages: 1 -->
<svg xmlns="http://www.w3.org/2000/svg" xmlns:xlink="http://www.w3.org/1999/xlink" width="2453pt" height="864pt" viewBox="0.00 0.00 2452.81 864.00">
<g id="graph0" class="graph" transform="scale(4.32594 4.32594) rotate(0) translate(4 195.725)">
<title>%3</title>
<polygon fill="white" stroke="none" points="-4,4 -4,-195.725 563,-195.725 563,4 -4,4"/>
<!-- 2&#45;74 -->
<g id="stl_thumbs/2-74.png" class="node"><title>2-74</title>
<polygon fill="white" stroke="white" points="200,-49.7252 164,-49.7252 164,-20.7252 200,-20.7252 200,-49.7252"/>
<text text-anchor="middle" x="182" y="-31.5252" font-family="Helvetica,sans-Serif" font-size="14.00">2-74</text>
<image height="36" href="stl_thumbs/2-74.png" width="36" x="164.0" y="-53.5252"/></g>
<!-- 2&#45;95 -->
<g id="stl_thumbs/2-95.png" class="node"><title>2-95</title>
<polygon fill="white" stroke="white" points="284,-49.7252 248,-49.7252 248,-20.7252 284,-20.7252 284,-49.7252"/>
<text text-anchor="middle" x="266" y="-31.5252" font-family="Helvetica,sans-Serif" font-size="14.00">2-95</text>
<image height="36" href="stl_thumbs/2-95.png" width="36" x="248.0" y="-53.5252"/></g>
<!-- 2&#45;74&#45;&gt;2&#45;95 -->
<g id="edge1" class="edge"><title>2-74-&gt;2-95</title>
<path fill="none" stroke="#797979" stroke-width="4.5" d="M200.39,-35.2252C213.086,-35.2252 230.365,-35.2252 243.859,-35.2252"/>
<polygon fill="#797979" stroke="#797979" stroke-width="4.5" points="243.992,-36.7705 247.916,-35.2252 243.992,-33.6801 243.992,-36.7705"/>
<text text-anchor="middle" x="224" y="-39.9115" font-family="Helvetica,sans-Serif" font-size="14.14" fill="#797979">2</text>
</g>
<!-- 2&#45;65 -->
<g id="stl_thumbs/2-65.png" class="node"><title>2-65</title>
<polygon fill="white" stroke="white" points="118,-88.7252 82,-88.7252 82,-59.7252 118,-59.7252 118,-88.7252"/>
<text text-anchor="middle" x="100" y="-70.5252" font-family="Helvetica,sans-Serif" font-size="14.00">2-65</text>
<image height="36" href="stl_thumbs/2-65.png" width="36" x="82.0" y="-92.5252"/></g>
<!-- 2&#45;65&#45;&gt;2&#45;74 -->
<g id="edge2" class="edge"><title>2-65-&gt;2-74</title>
<path fill="none" stroke="#8e8e8e" stroke-width="1.5" d="M118.359,-65.7628C130.814,-59.6909 147.636,-51.4902 160.711,-45.1159"/>
<polygon fill="#8e8e8e" stroke="#8e8e8e" stroke-width="1.5" points="161.49,-46.0214 163.95,-43.5371 160.477,-43.945 161.49,-46.0214"/>
<text text-anchor="middle" x="141" y="-60.2252" font-family="Helvetica,sans-Serif" font-size="10.00" fill="#8e8e8e">1</text>
</g>
<!-- 1&#45;29 -->
<g id="stl_thumbs/1-29.png" class="node"><title>1-29</title>
<polygon fill="white" stroke="white" points="200,-140.725 164,-140.725 164,-111.725 200,-111.725 200,-140.725"/>
<text text-anchor="middle" x="182" y="-122.525" font-family="Helvetica,sans-Serif" font-size="14.00">1-29</text>
<image height="36" href="stl_thumbs/1-29.png" width="36" x="164.0" y="-144.525"/></g>
<!-- 6&#45;86 -->
<g id="stl_thumbs/6-86.png" class="node"><title>6-86</title>
<polygon fill="white" stroke="white" points="338,-184.725 302,-184.725 302,-155.725 338,-155.725 338,-184.725"/>
<text text-anchor="middle" x="320" y="-166.525" font-family="Helvetica,sans-Serif" font-size="14.00">6-86</text>
<image height="36" href="stl_thumbs/6-86.png" width="36" x="302.0" y="-188.525"/></g>
<!-- 1&#45;29&#45;&gt;6&#45;86 -->
<g id="edge5" class="edge"><title>1-29-&gt;6-86</title>
<path fill="none" stroke="#8e8e8e" stroke-width="1.5" d="M200.328,-133.522C205.927,-135.781 212.189,-138.205 218,-140.225 245.552,-149.805 277.97,-159.091 298.5,-164.732"/>
<polygon fill="#8e8e8e" stroke="#8e8e8e" stroke-width="1.5" points="298.203,-165.848 301.691,-165.605 298.813,-163.62 298.203,-165.848"/>
<text text-anchor="middle" x="224" y="-146.225" font-family="Helvetica,sans-Serif" font-size="10.00" fill="#8e8e8e">1</text>
</g>
<!-- 1&#45;59 -->
<g id="stl_thumbs/1-59.png" class="node"><title>1-59</title>
<polygon fill="white" stroke="white" points="473,-93.7252 437,-93.7252 437,-64.7252 473,-64.7252 473,-93.7252"/>
<text text-anchor="middle" x="455" y="-75.5252" font-family="Helvetica,sans-Serif" font-size="14.00">1-59</text>
<image height="36" href="stl_thumbs/1-59.png" width="36" x="437.0" y="-97.5252"/></g>
<!-- 1&#45;29&#45;&gt;1&#45;59 -->
<g id="edge3" class="edge"><title>1-29-&gt;1-59</title>
<path fill="none" stroke="#8e8e8e" stroke-width="1.5" d="M200.089,-123.575C235.78,-118.011 320.831,-104.602 392,-92.2252 404.024,-90.1342 407.049,-89.6965 419,-87.2252 423.761,-86.2407 428.87,-85.1134 433.673,-84.0218"/>
<polygon fill="#8e8e8e" stroke="#8e8e8e" stroke-width="1.5" points="433.982,-85.136 436.941,-83.2739 433.467,-82.8842 433.982,-85.136"/>
<text text-anchor="middle" x="320" y="-110.225" font-family="Helvetica,sans-Serif" font-size="10.00" fill="#8e8e8e">1</text>
</g>
<!-- 1&#45;29&#45;&gt;2&#45;95 -->
<g id="edge4" class="edge"><title>1-29-&gt;2-95</title>
<path fill="none" stroke="#4f4f4f" stroke-width="10.5" d="M196.175,-111.604C210.401,-95.8169 233.09,-70.638 248.495,-53.5422"/>
<polygon fill="#4f4f4f" stroke="#4f4f4f" stroke-width="10.5" points="251.919,-56.1469 251.858,-49.8096 245.549,-50.4063 251.919,-56.1469"/>
<text text-anchor="middle" x="224" y="-92.2252" font-family="Helvetica,sans-Serif" font-size="20.00" fill="#4f4f4f">4</text>
</g>
<!-- 1&#45;12 -->
<g id="stl_thumbs/1-12.png" class="node"><title>1-12</title>
<polygon fill="white" stroke="white" points="118,-191.725 82,-191.725 82,-162.725 118,-162.725 118,-191.725"/>
<text text-anchor="middle" x="100" y="-173.525" font-family="Helvetica,sans-Serif" font-size="14.00">1-12</text>
<image height="36" href="stl_thumbs/1-12.png" width="36" x="82.0" y="-195.525"/></g>
<!-- 1&#45;12&#45;&gt;1&#45;29 -->
<g id="edge6" class="edge"><title>1-12-&gt;1-29</title>
<path fill="none" stroke="#636363" stroke-width="7.5" d="M118.359,-166.159C130.603,-158.353 147.067,-147.858 160.043,-139.585"/>
<polygon fill="#636363" stroke="#636363" stroke-width="7.5" points="161.82,-141.833 163.95,-137.095 158.756,-137.026 161.82,-141.833"/>
<text text-anchor="middle" x="141" y="-159.369" font-family="Helvetica,sans-Serif" font-size="17.32" fill="#636363">3</text>
</g>
<!-- 1&#45;0 -->
<g id="stl_thumbs/1-0.png" class="node"><title>1-0</title>
<polygon fill="white" stroke="white" points="36,-119.725 0,-119.725 0,-90.7252 36,-90.7252 36,-119.725"/>
<text text-anchor="middle" x="18" y="-101.525" font-family="Helvetica,sans-Serif" font-size="14.00">1-0</text>
<image height="36" href="stl_thumbs/1-0.png" width="36" x="0.0" y="-123.525"/></g>
<!-- 1&#45;0&#45;&gt;2&#45;74 -->
<g id="edge7" class="edge"><title>1-0-&gt;2-74</title>
<path fill="none" stroke="#8e8e8e" stroke-width="1.5" d="M28.0002,-90.5046C38.6626,-74.5915 58.0387,-50.0557 82,-39.2252 107.042,-27.9064 139.383,-29.1569 160.162,-31.6969"/>
<polygon fill="#8e8e8e" stroke="#8e8e8e" stroke-width="1.5" points="160.227,-32.8699 163.648,-32.1485 160.524,-30.5791 160.227,-32.8699"/>
<text text-anchor="middle" x="100" y="-42.2252" font-family="Helvetica,sans-Serif" font-size="10.00" fill="#8e8e8e">1</text>
</g>
<!-- 1&#45;0&#45;&gt;2&#45;65 -->
<g id="edge8" class="edge"><title>1-0-&gt;2-65</title>
<path fill="none" stroke="#8e8e8e" stroke-width="1.5" d="M36.3588,-98.4986C48.8139,-93.6723 65.6359,-87.1538 78.7113,-82.0871"/>
<polygon fill="#8e8e8e" stroke="#8e8e8e" stroke-width="1.5" points="79.2902,-83.1015 81.9499,-80.8321 78.4555,-80.9475 79.2902,-83.1015"/>
<text text-anchor="middle" x="59" y="-95.2252" font-family="Helvetica,sans-Serif" font-size="10.00" fill="#8e8e8e">1</text>
</g>
<!-- 1&#45;0&#45;&gt;1&#45;29 -->
<g id="edge9" class="edge"><title>1-0-&gt;1-29</title>
<path fill="none" stroke="#636363" stroke-width="7.5" d="M36.0306,-107.433C65.6082,-111.267 126.429,-119.151 159.101,-123.386"/>
<polygon fill="#636363" stroke="#636363" stroke-width="7.5" points="159.036,-126.252 163.71,-123.984 159.769,-120.599 159.036,-126.252"/>
<text text-anchor="middle" x="100" y="-123.369" font-family="Helvetica,sans-Serif" font-size="17.32" fill="#636363">3</text>
</g>
<!-- 1&#45;0&#45;&gt;1&#45;12 -->
<g id="edge10" class="edge"><title>1-0-&gt;1-12</title>
<path fill="none" stroke="#636363" stroke-width="7.5" d="M33.7695,-120.018C39.9308,-126.071 47.2195,-133.083 54,-139.225 61.6846,-146.187 70.3422,-153.596 77.996,-160.005"/>
<polygon fill="#636363" stroke="#636363" stroke-width="7.5" points="76.5033,-162.472 81.6641,-163.065 80.1548,-158.095 76.5033,-162.472"/>
<text text-anchor="middle" x="59" y="-152.369" font-family="Helvetica,sans-Serif" font-size="17.32" fill="#636363">3</text>
</g>
<!-- 8&#45;126 -->
<g id="stl_thumbs/8-126.png" class="node"><title>8-126</title>
<polygon fill="white" stroke="white" points="392,-42.7252 356,-42.7252 356,-13.7252 392,-13.7252 392,-42.7252"/>
<text text-anchor="middle" x="374" y="-24.5252" font-family="Helvetica,sans-Serif" font-size="14.00">8-126</text>
<image height="36" href="stl_thumbs/8-126.png" width="36" x="356.0" y="-46.5252"/></g>
<!-- 8&#45;126&#45;&gt;1&#45;59 -->
<g id="edge11" class="edge"><title>8-126-&gt;1-59</title>
<path fill="none" stroke="#8e8e8e" stroke-width="1.5" d="M392.345,-38.0105C400.531,-42.7459 410.374,-48.6107 419,-54.2252 423.872,-57.396 429.017,-60.9501 433.819,-64.3611"/>
<polygon fill="#8e8e8e" stroke="#8e8e8e" stroke-width="1.5" points="433.402,-65.483 436.759,-66.4618 434.745,-63.6035 433.402,-65.483"/>
<text text-anchor="middle" x="414.5" y="-57.2252" font-family="Helvetica,sans-Serif" font-size="10.00" fill="#8e8e8e">1</text>
</g>
<!-- 6&#45;86&#45;&gt;1&#45;59 -->
<g id="edge12" class="edge"><title>6-86-&gt;1-59</title>
<path fill="none" stroke="#8e8e8e" stroke-width="1.5" d="M338.003,-168.82C359.062,-166.294 395.078,-159.313 419,-140.225 432.901,-129.133 442.314,-110.916 447.846,-97.2722"/>
<polygon fill="#8e8e8e" stroke="#8e8e8e" stroke-width="1.5" points="449.036,-97.4029 449.169,-93.9091 446.886,-96.5571 449.036,-97.4029"/>
<text text-anchor="middle" x="374" y="-168.225" font-family="Helvetica,sans-Serif" font-size="10.00" fill="#8e8e8e">1</text>
</g>
<!-- 1&#45;66 -->
<g id="stl_thumbs/1-66.png" class="node"><title>1-66</title>
<polygon fill="white" stroke="white" points="559,-30.7252 523,-30.7252 523,-1.72518 559,-1.72518 559,-30.7252"/>
<text text-anchor="middle" x="541" y="-12.5252" font-family="Helvetica,sans-Serif" font-size="14.00">1-66</text>
<image height="36" href="stl_thumbs/1-66.png" width="36" x="523.0" y="-34.5252"/></g>
<!-- 1&#45;59&#45;&gt;1&#45;66 -->
<g id="edge13" class="edge"><title>1-59-&gt;1-66</title>
<path fill="none" stroke="#292929" stroke-width="16.5" d="M473.405,-66.1715C486.557,-56.3075 504.677,-42.7174 518.696,-32.2033"/>
<polygon fill="#292929" stroke="#292929" stroke-width="16.5" points="523.247,-38.1108 522.905,-29.0465 514.299,-26.1801 523.247,-38.1108"/>
<text text-anchor="middle" x="498" y="-59.6293" font-family="Helvetica,sans-Serif" font-size="24.49" fill="#292929">6</text>
</g>
<!-- 2&#45;95&#45;&gt;8&#45;126 -->
<g id="edge15" class="edge"><title>2-95-&gt;8-126</title>
<path fill="none" stroke="#8e8e8e" stroke-width="1.5" d="M284.031,-34.1005C302.619,-32.873 332.384,-30.9074 352.305,-29.5918"/>
<polygon fill="#8e8e8e" stroke="#8e8e8e" stroke-width="1.5" points="352.443,-30.7404 355.659,-29.3703 352.29,-28.4354 352.443,-30.7404"/>
<text text-anchor="middle" x="320" y="-36.2252" font-family="Helvetica,sans-Serif" font-size="10.00" fill="#8e8e8e">1</text>
</g>
<!-- 2&#45;95&#45;&gt;1&#45;59 -->
<g id="edge14" class="edge"><title>2-95-&gt;1-59</title>
<path fill="none" stroke="#636363" stroke-width="7.5" d="M284.271,-42.2424C289.866,-44.3531 296.142,-46.5506 302,-48.2252 347.719,-61.2933 402.674,-71.081 432.379,-75.8973"/>
<polygon fill="#636363" stroke="#636363" stroke-width="7.5" points="432.184,-78.7526 436.924,-76.6274 433.088,-73.1245 432.184,-78.7526"/>
<text text-anchor="middle" x="374" y="-74.3688" font-family="Helvetica,sans-Serif" font-size="17.32" fill="#636363">3</text>
</g>
<!-- 2&#45;95&#45;&gt;1&#45;66 -->
<g id="edge16" class="edge"><title>2-95-&gt;1-66</title>
<path fill="none" stroke="#797979" stroke-width="4.5" d="M284.271,-27.2588C301.875,-19.6096 330.188,-8.59192 356,-4.22518 414.387,5.65231 484.466,-5.01022 518.855,-11.6864"/>
<polygon fill="#797979" stroke="#797979" stroke-width="4.5" points="518.719,-13.2346 522.868,-12.4792 519.318,-10.2027 518.719,-13.2346"/>
<text text-anchor="middle" x="414.5" y="-5.91147" font-family="Helvetica,sans-Serif" font-size="14.14" fill="#797979">2</text>
</g>
</g>
</svg>
